# xmcd
#
# Track frame offsets: 
#        150
#        13356
#        21679
#        31976
#        43734
#        57807
#        66106
#        77035
#        88507
#        101983
#        112132
#        124473
#        132569
#        145219
#        154195
#        167900
#        177479
#        189087
#        198686
#        207452
#
# Disc length: 2939 seconds
#
# Revision: 1
# Processed by: cddbd v1.5.2PL0 Copyright (c) Steve Scherf et al.
# Submitted via: ExactAudioCopyFreeDBPlugin 1.0
#
DISCID=370b7914
DTITLE=Various Artist - Train Songs:  200 Great Songs About Heroes, H
DTITLE=obos and Freight Trains [Membran Music Documents]
DYEAR=2011
DGENRE=Trains
TTITLE0=Jimmy Jackson's Rockin' Skiffle - California Zephyr
TTITLE1=Johnny Cash - Wreck Of The Old '97
TTITLE2=The Miller Brothers - Loco Choo Choo
TTITLE3=Jody Reynolds - Long Black Train
TTITLE4=Tennessee Ernie Ford - Mule Train
TTITLE5=Hank Davis - Woman Train
TTITLE6=Wade Cagle - Groovy Train
TTITLE7=Johnny Tyler - Freight Train Boogie
TTITLE8=Gene Simmons - Going Back to Memphis
TTITLE9=Doug Corby - Heartbreak Train
TTITLE10=Johnny Nelms - Mister Freight Train
TTITLE11=Tommy Sena - Choo Choo Train
TTITLE12=Joe Lewis - Railroad Engineer
TTITLE13=Eddie Carter - Railroad Stomp
TTITLE14=Hank Snow - The Engineer's Child
TTITLE15=Bob Cort's Skiffle Group - Eight More Miles to Louisville
TTITLE16=Jack Kingston - Freight Train Blues
TTITLE17=Louis and Frosty - Train Time
TTITLE18=Bill Clifton - I'm Rollin' On
TTITLE19=Tennessee - Intercity
EXTD=
EXTT0=
EXTT1=
EXTT2=
EXTT3=
EXTT4=
EXTT5=
EXTT6=
EXTT7=
EXTT8=
EXTT9=
EXTT10=
EXTT11=
EXTT12=
EXTT13=
EXTT14=
EXTT15=
EXTT16=
EXTT17=
EXTT18=
EXTT19=
PLAYORDER=
